#!OML:ASF H:\Dans Jumps\Project 1\Capture day 1\Session 1\subject.ASF
:FULLY-SPECIFIED
:DEGREES
389
root 0.57619 17.561 7.05675 8.8783 -0.952901 -2.50134
lowerback -2.98092 -0.0479067 0.0349613
upperback 1.47092 -0.111205 1.52168
thorax 3.18674 -0.0715964 1.53933
lowerneck -13.0765 -0.123961 -1.83359
upperneck 31.9167 -0.429057 2.23403
head 12.7978 -0.123154 1.11919
rclavicle -7.442e-015 -1.49089e-015
rhumerus -39.8888 -25.8433 -71.0364
rradius 18.6438
rwrist 51.3278
rhand -23.6374 -28.2208
rfingers 7.12502
rthumb 2.82755 -58.1818
lclavicle -7.442e-015 -1.49089e-015
lhumerus -35.7128 -4.8647 92.1658
lradius 20.0781
lwrist 6.7655
lhand -25.1246 -5.63629
lfingers 7.12502
lthumb 1.39127 24.3389
rfemur -13.9423 -1.57894 20.7883
rtibia 23.8158
rfoot -16.5325 -0.498026
rtoes 14.0623
lfemur -14.536 9.50574 -17.776
ltibia 24.611
lfoot -14.3695 6.41944
ltoes -3.41787
390
root 0.572835 17.5625 7.06105 8.87401 -0.939578 -2.51424
lowerback -3.02382 -0.0502289 0.0952813
upperback 1.45986 -0.11707 1.51807
thorax 3.19954 -0.0732067 1.50143
lowerneck -13.1393 -0.102757 -1.85877
upperneck 32.3862 -0.411249 2.2773
head 13.0084 -0.113492 1.14941
rclavicle -3.39176e-015 7.25564e-015
rhumerus -39.4478 -25.4011 -71.5081
rradius 18.8396
rwrist 50.4409
rhand -23.7711 -28.3201
rfingers 7.12502
rthumb 2.69845 -58.2828
lclavicle -3.39176e-015 7.25564e-015
lhumerus -35.4645 -4.82406 92.1286
lradius 20.1317
lwrist 6.92546
lhand -25.0992 -5.54301
lfingers 7.12502
lthumb 1.41571 24.432
rfemur -13.882 -1.63648 20.815
rtibia 23.7439
rfoot -16.5209 -0.426576
rtoes 14.1386
lfemur -14.4872 9.50414 -17.7465
ltibia 24.5538
lfoot -14.3517 6.41426
ltoes -3.41648
391
root 0.569775 17.5641 7.06455 8.86497 -0.929313 -2.51642
lowerback -3.05967 -0.0510558 0.147735
upperback 1.4508 -0.120509 1.51154
thorax 3.21037 -0.0737402 1.46507
lowerneck -13.1976 -0.0791771 -1.87678
upperneck 32.8628 -0.390043 2.31429
head 13.2236 -0.102457 1.17701
rclavicle 6.94504e-015 1.07344e-014
rhumerus -38.9793 -24.9009 -72.0021
rradius 19.0465
rwrist 49.5544
rhand -23.8723 -28.392
rfingers 7.12502
rthumb 2.60072 -58.3559
lclavicle 6.94504e-015 1.07344e-014
lhumerus -35.2032 -4.80583 92.0969
lradius 20.2061
lwrist 7.09517
lhand -25.0953 -5.42141
lfingers 7.12502
lthumb 1.4195 24.5536
rfemur -13.8268 -1.71775 20.8268
rtibia 23.6827
rfoot -16.5081 -0.32308
rtoes 14.2349
lfemur -14.4394 9.50129 -17.7307
ltibia 24.5031
lfoot -14.3319 6.41364
ltoes -3.4188
392
root 0.566897 17.5657 7.06699 8.84979 -0.92448 -2.51678
lowerback -3.08307 -0.0484492 0.198903
upperback 1.44504 -0.119227 1.50404
thorax 3.21745 -0.0719356 1.4287
lowerneck -13.2479 -0.0558906 -1.88655
upperneck 33.3293 -0.369212 2.34437
head 13.4355 -0.0916128 1.20067
rclavicle -1.70209e-015 -6.4605e-015
rhumerus -38.4931 -24.3533 -72.5079
rradius 19.2677
rwrist 48.6904
rhand -23.9584 -28.4283
rfingers 7.12502
rthumb 2.51754 -58.3932
lclavicle -1.70209e-015 -6.4605e-015
lhumerus -34.9323 -4.80773 92.0688
lradius 20.3259
lwrist 7.28171
lhand -25.0426 -5.11054
lfingers 7.12502
lthumb 1.47045 24.8641
rfemur -13.7784 -1.80833 20.8343
rtibia 23.6363
rfoot -16.494 -0.202013
rtoes 14.3416
lfemur -14.3914 9.49802 -17.7178
ltibia 24.4584
lfoot -14.3098 6.4164
ltoes -3.41593
